<?xml version="1.0" encoding="UTF-8"?>
<svg id="india_logo" xmlns="http://www.w3.org/2000/svg" version="1.1" viewBox="0 0 2525.8 497">
  <!-- Generator: Adobe Illustrator 29.3.1, SVG Export Plug-In . SVG Version: 2.1.0 Build 151)  -->
  <defs>
    <style>
      .st0 {
        fill: #c4161b;
      }
    </style>
  </defs>
  <g>
    <path class="st0" d="M145.5,176.4c0,6.6,7,8.6,14.9,10.8,10.6,2.9,23,6.7,23,21.9s-13.4,23.1-28,23.1-27-4.2-28.3-23.2l14.1-2.1c1.2,7.1,3.8,13,14.5,13s12.1-2.2,12.1-9-6.9-8.3-14.7-10.3c-10.7-2.8-23.3-6.1-23.3-22s11.9-22,26.7-22,24.9,4,26.1,21.4l-14.2,1.6c-.6-6.9-3.4-11-12-11s-10.9,3.1-10.9,7.8Z"/>
    <path class="st0" d="M190.1,194.8c0-21.7,12-38.2,35.7-38.2s33.5,16.5,33.5,36.8-11.4,38.9-35.1,38.9-34-15.7-34-37.5ZM243.2,194.3c0-16.9-6.6-24.5-17.8-24.5s-19.3,7.8-19.3,24.7,7.1,24.6,18.6,24.6,18.5-6.8,18.5-24.8Z"/>
    <path class="st0" d="M266.9,195.3c0-23.2,12.3-38.7,35.2-38.7s28,7.9,28.8,26.3l-14.2,1.2c-.9-10.4-5.4-14.6-14.7-14.6s-19,7.7-19,25,6.4,24.9,17.9,24.9,14.1-5.5,15.9-13.1l14,2.4c-2.3,17.5-17,23.5-30.1,23.5-24.2,0-33.7-14.3-33.7-37Z"/>
    <path class="st0" d="M356.2,231.1h-15.6v-73.1h15.6v73.1Z"/>
    <path class="st0" d="M386.7,217.9h32.6v13.1h-48.2v-73.1h46.4v13h-30.8v17.2h29v12.7h-29v17.1Z"/>
    <path class="st0" d="M444.9,231.1v-60h-21.5v-13.1h58.5v13.1h-21.3v60h-15.7Z"/>
    <path class="st0" d="M521.9,231.1h-15.7v-27.4l-25.4-45.8h17.1l16.1,31.3h.5l15.5-31.3h15.8l-23.8,45.5v27.6Z"/>
    <path class="st0" d="M586.1,231.1h-15.6v-73.1h46.1v13h-30.5v18.6h28.1v12.8h-28.1v28.7Z"/>
    <path class="st0" d="M622.8,194.8c0-21.7,12-38.2,35.7-38.2s33.5,16.5,33.5,36.8-11.4,38.9-35.1,38.9-34-15.7-34-37.5ZM675.9,194.3c0-16.9-6.6-24.5-17.8-24.5s-19.3,7.8-19.3,24.7,7.1,24.6,18.6,24.6,18.5-6.8,18.5-24.8Z"/>
    <path class="st0" d="M759.8,231.1h-16.8l-14.4-27.8h-10v27.8h-15.5v-73.1h28.5c18.2,0,24.2,9.8,24.2,20.6s-5.2,17.5-12.6,20.9l16.6,31.6ZM726.6,191.1c7.3,0,13.2-2.7,13.2-11s-4.3-9.6-12.6-9.6h-8.6v20.6h8Z"/>
    <path class="st0" d="M802.8,217.9h32.6v13.1h-48.2v-73.1h46.4v13h-30.8v17.2h29v12.7h-29v17.1Z"/>
    <path class="st0" d="M861.7,217.9h31.3v13.1h-46.9v-73.1h15.6v60Z"/>
    <path class="st0" d="M919,231.1h-15.6v-73.1h15.6v73.1Z"/>
    <path class="st0" d="M1011.5,231.1h-14.5v-57.4h-.4l-17.3,57.4h-14l-16.7-57.5h-.4v57.5h-14.2v-73.1h23.2l15.5,53.4h.4l15.4-53.4h23.1v73.1Z"/>
    <path class="st0" d="M1041.9,231.1h-15.6v-73.1h15.6v73.1Z"/>
    <path class="st0" d="M1099.3,231.1l-28.2-51.6v51.6h-14.2v-73.1h18.6l27.7,51.8v-51.8h14.1v73.1h-18Z"/>
    <path class="st0" d="M1169.4,158l25.9,73.1h-17.1l-6.1-17.8h-24.3l-5.7,17.8h-16.1l23.9-73.1h19.4ZM1159.8,172.6h-.4l-9,28.3h18.5l-9.1-28.3Z"/>
    <path class="st0" d="M1210.1,231.1v-60h-21.5v-13.1h58.5v13.1h-21.3v60h-15.7Z"/>
    <path class="st0" d="M1270.9,231.1h-15.6v-73.1h15.6v73.1Z"/>
    <path class="st0" d="M1282.2,194.8c0-21.7,12-38.2,35.7-38.2s33.5,16.5,33.5,36.8-11.4,38.9-35.1,38.9-34-15.7-34-37.5ZM1335.3,194.3c0-16.9-6.6-24.5-17.8-24.5s-19.3,7.8-19.3,24.7,7.1,24.6,18.6,24.6,18.5-6.8,18.5-24.8Z"/>
    <path class="st0" d="M1405,231.1l-28.2-51.6v51.6h-14.2v-73.1h18.6l27.7,51.8v-51.8h14.1v73.1h-18Z"/>
    <path class="st0" d="M1453.4,194.8c0-21.7,12-38.2,35.7-38.2s33.5,16.5,33.5,36.8-11.4,38.9-35.1,38.9-34-15.7-34-37.5ZM1506.5,194.3c0-16.9-6.6-24.5-17.8-24.5s-19.3,7.8-19.3,24.7,7.1,24.6,18.6,24.6,18.5-6.8,18.5-24.8Z"/>
    <path class="st0" d="M1549.4,231.1h-15.6v-73.1h46.1v13h-30.5v18.6h28.1v12.8h-28.1v28.7Z"/>
    <path class="st0" d="M1665.5,231.1h-16.8l-14.4-27.8h-10v27.8h-15.5v-73.1h28.5c18.2,0,24.2,9.8,24.2,20.6s-5.2,17.5-12.6,20.9l16.6,31.6ZM1632.3,191.1c7.3,0,13.2-2.7,13.2-11s-4.3-9.6-12.6-9.6h-8.6v20.6h8Z"/>
    <path class="st0" d="M1715.5,202.5v-44.5h15.6v46.8c0,19.4-11.2,27.6-29.5,27.6s-28.8-8.9-28.8-28v-46.4h15.7v44.2c0,11.4,2.9,17.1,13.7,17.1s13.3-4.8,13.3-16.8Z"/>
    <path class="st0" d="M1801.9,231.1h-16.8l-14.4-27.8h-10v27.8h-15.5v-73.1h28.5c18.2,0,24.2,9.8,24.2,20.6s-5.2,17.5-12.6,20.9l16.6,31.6ZM1768.6,191.1c7.3,0,13.2-2.7,13.2-11s-4.3-9.6-12.6-9.6h-8.6v20.6h8Z"/>
    <path class="st0" d="M1847.3,158l25.9,73.1h-17.1l-6.1-17.8h-24.3l-5.7,17.8h-16.1l23.9-73.1h19.4ZM1837.7,172.6h-.4l-9,28.3h18.5l-9.1-28.3Z"/>
    <path class="st0" d="M1897.2,217.9h31.3v13.1h-46.9v-73.1h15.6v60Z"/>
    <path class="st0" d="M1973.7,231.1h-15.5v-73.1h27.7c18.7,0,24.3,11.2,24.3,22.8,0,17.6-9.6,26.7-28.6,26.7h-8v23.6ZM1979.9,194.9c8,0,14.3-2.3,14.3-13s-5.6-11.4-13.1-11.4h-7.5v24.4h6.3Z"/>
    <path class="st0" d="M2016,194.8c0-21.7,12-38.2,35.7-38.2s33.5,16.5,33.5,36.8-11.4,38.9-35.1,38.9-34-15.7-34-37.5ZM2069.1,194.3c0-16.9-6.6-24.5-17.8-24.5s-19.3,7.8-19.3,24.7,7.1,24.6,18.6,24.6,18.5-6.8,18.5-24.8Z"/>
    <path class="st0" d="M2110.4,231.1l-23.7-73.1h17.5l16.7,57.8h.6l16.7-57.8h16.1l-22.7,73.1h-21Z"/>
    <path class="st0" d="M2176.9,217.9h32.6v13.1h-48.2v-73.1h46.4v13h-30.8v17.2h29v12.7h-29v17.1Z"/>
    <path class="st0" d="M2276.9,231.1h-16.8l-14.4-27.8h-10v27.8h-15.5v-73.1h28.5c18.2,0,24.2,9.8,24.2,20.6s-5.2,17.5-12.6,20.9l16.6,31.6ZM2243.6,191.1c7.3,0,13.2-2.7,13.2-11s-4.3-9.6-12.6-9.6h-8.6v20.6h8Z"/>
    <path class="st0" d="M2297.9,231.1v-60h-21.5v-13.1h58.5v13.1h-21.3v60h-15.7Z"/>
    <path class="st0" d="M2374.8,231.1h-15.7v-27.4l-25.4-45.8h17.1l16.1,31.3h.5l15.5-31.3h15.8l-23.8,45.5v27.6Z"/>
  </g>
  <g>
    <path d="M235.6,326v-49.2h16c17.1,0,24.4,9.2,24.4,23.9s-8,25.4-25.6,25.4h-14.8ZM250.4,319.5c12.2,0,17.5-6.8,17.5-18.2s-6-18.2-16.9-18.2h-7.4v36.3h6.8Z"/>
    <path d="M282,308.4c0-12.7,7.6-18.4,16.8-18.4s14.4,6.5,14.4,15.6,0,3.1-.2,4.7h-22.8c.2,7.4,3.7,10.1,8.8,10.1s6.4-2.1,7.2-5.7l6.7,1.6c-1.4,6.7-6.7,10.5-14.3,10.5-12.6,0-16.6-8.7-16.6-18.4ZM305.1,304.9c0-6-2.1-8.6-6.8-8.6s-7.6,2.4-8,8.6h14.8Z"/>
    <path d="M321.2,290.8h6.7l.4,3.7c3.1-2.9,7.1-4.5,11.8-4.5,7.4,0,13,4.6,13,17.5s-6.7,19.2-14.6,19.2-7.3-1.4-9.8-3.4v17h-7.5v-49.6ZM328.9,317.3c1.4,1.1,4.5,3.1,7.9,3.1,5.9,0,8.1-5,8.1-12.7s-2.4-11.2-7.4-11.2-6.7,2-8.6,3.7v17.1Z"/>
    <path d="M387,318.6c0,1.9.3,2.7,2.1,2.7s1.2-.1,2.1-.4l.3,4.6c-1.4.7-3.6,1.2-5.5,1.2-3.7,0-5.3-1.4-5.9-4.1-2.4,2.6-6.3,4.3-11.2,4.3-8.8,0-10.4-6-10.4-9.5,0-9.1,7.8-12.1,17.2-12.1s2.7,0,3.6.1v-2.7c0-4.3-1-6.7-6.1-6.7s-5.7,1.8-6.5,5.4l-6.9-1.2c1.1-6.6,5.3-10.1,13.9-10.1s13.2,3.5,13.2,12.2v16.3ZM379.4,310.8c-.7,0-1.5-.1-3.3-.1-3.9,0-9.7.5-9.7,5.6s1.1,4.7,5.2,4.7,6.1-1.6,7.7-3.3v-6.9Z"/>
    <path d="M417.7,298c-4.4-.5-9.4,1-12.3,3.6v24.4h-7.8v-35.2h6.6l.6,5.2c2.8-3.9,6.3-6,11.5-6s.7,0,1.4,0v7.8Z"/>
    <path d="M444.4,324.4c-1.8,1.2-5.6,2.4-9.3,2.4-6.9,0-10.5-3.1-10.5-10.6v-19.6h-5.4v-5.8h5.4v-10.3l7.8-1.1v11.4h9.5v5.8h-9.5v18.5c0,3.5.9,5.3,4.7,5.3s4.6-.8,6-1.6l1.3,5.6Z"/>
    <path d="M457.6,326h-7.8v-35.2h6.7l.3,3.6c3.2-2.5,6.9-4.4,11.5-4.4s7.3,1.3,8.8,4.6c3.1-2.7,7-4.6,11.8-4.6,7.2,0,10.2,4,10.2,11.9v24h-7.8v-22.8c0-4.1-1-6.5-4.9-6.5s-6.3,1.8-8,3.4c0,.5,0,1.2,0,1.8v24.1h-7.8v-22.8c0-4.1-1-6.5-4.8-6.5s-6.5,2-8.2,3.5v25.8Z"/>
    <path d="M506.5,308.4c0-12.7,7.6-18.4,16.8-18.4s14.4,6.5,14.4,15.6,0,3.1-.2,4.7h-22.8c.2,7.4,3.7,10.1,8.8,10.1s6.4-2.1,7.2-5.7l6.7,1.6c-1.4,6.7-6.7,10.5-14.3,10.5-12.6,0-16.6-8.7-16.6-18.4ZM529.6,304.9c0-6-2.1-8.6-6.8-8.6s-7.6,2.4-8,8.6h14.8Z"/>
    <path d="M575.9,326h-7.8v-22.6c0-4.4-1.6-6.7-5.8-6.7s-7.2,2.2-8.9,3.7v25.6h-7.8v-35.2h6.9l.3,3.7c3.1-2.5,7.3-4.4,12.2-4.4,7.6,0,10.9,4,10.9,12v23.9Z"/>
    <path d="M606.1,324.4c-1.8,1.2-5.6,2.4-9.3,2.4-6.9,0-10.5-3.1-10.5-10.6v-19.6h-5.4v-5.8h5.4v-10.3l7.8-1.1v11.4h9.5v5.8h-9.5v18.5c0,3.5.9,5.3,4.7,5.3s4.6-.8,6-1.6l1.3,5.6Z"/>
    <path d="M623.9,308.6c0-11.3,5.8-18.5,17.5-18.5s16.2,7.3,16.2,17.7-5,19-17.1,19-16.6-7.8-16.6-18.2ZM649.5,308.2c0-8.8-2.9-11.8-8.4-11.8s-9,3.3-9,11.9,2.7,12.4,8.8,12.4,8.6-3.5,8.6-12.6Z"/>
    <path d="M666.1,326v-29.4h-5v-5.8h5v-5c0-8.1,4.4-11.8,11.4-11.8s5.8.7,6.9,1.2l-.3,5.6c-1.4-.5-3.2-.9-4.8-.9-3.2,0-5.4,1.2-5.4,6.1v4.8h9.6v5.8h-9.6v29.4h-7.8Z"/>
    <path d="M740.2,326h-8.6l-10.6-19.8h-9.4v19.8h-7.9v-49.2h17.8c12.2,0,16,6.7,16,13.6s-3.7,11.7-9.1,13.8l11.8,21.8ZM719.3,299.8c5.8,0,10.1-1.9,10.1-8.9s-3.8-7.6-10.3-7.6h-7.5v16.5h7.7Z"/>
    <path d="M745.3,290.8h7.8v22.6c0,4.4,1.4,6.7,5.5,6.7s7.1-2.1,8.8-3.7v-25.6h7.8v35.2h-6.8l-.5-3.9c-3.1,2.8-7.2,4.6-12,4.6-7.3,0-10.6-4-10.6-11.9v-24Z"/>
    <path d="M805,298c-4.4-.5-9.4,1-12.3,3.6v24.4h-7.8v-35.2h6.6l.6,5.2c2.8-3.9,6.3-6,11.5-6s.7,0,1.4,0v7.8Z"/>
    <path d="M835.9,318.6c0,1.9.3,2.7,2.1,2.7s1.2-.1,2.1-.4l.3,4.6c-1.4.7-3.6,1.2-5.5,1.2-3.7,0-5.3-1.4-5.9-4.1-2.4,2.6-6.3,4.3-11.2,4.3-8.8,0-10.4-6-10.4-9.5,0-9.1,7.8-12.1,17.2-12.1s2.7,0,3.6.1v-2.7c0-4.3-1-6.7-6.1-6.7s-5.7,1.8-6.5,5.4l-6.9-1.2c1.1-6.6,5.3-10.1,13.9-10.1s13.2,3.5,13.2,12.2v16.3ZM828.3,310.8c-.7,0-1.5-.1-3.3-.1-3.9,0-9.7.5-9.7,5.6s1.1,4.7,5.2,4.7,6.1-1.6,7.7-3.3v-6.9Z"/>
    <path d="M854.4,326h-7.8v-51.3h7.8v51.3Z"/>
    <path d="M879.3,326v-49.2h16c17.1,0,24.4,9.2,24.4,23.9s-8,25.4-25.6,25.4h-14.8ZM894.1,319.5c12.2,0,17.5-6.8,17.5-18.2s-6-18.2-16.9-18.2h-7.4v36.3h6.8Z"/>
    <path d="M925.7,308.4c0-12.7,7.6-18.4,16.8-18.4s14.4,6.5,14.4,15.6,0,3.1-.2,4.7h-22.8c.2,7.4,3.7,10.1,8.8,10.1s6.4-2.1,7.2-5.7l6.7,1.6c-1.4,6.7-6.7,10.5-14.3,10.5-12.6,0-16.6-8.7-16.6-18.4ZM948.8,304.9c0-6-2.1-8.6-6.8-8.6s-7.6,2.4-8,8.6h14.8Z"/>
    <path d="M972.3,326l-13-35.2h8.5l9.2,27.5h.1l9.1-27.5h8l-12.9,35.2h-9Z"/>
    <path d="M996.6,308.4c0-12.7,7.6-18.4,16.8-18.4s14.4,6.5,14.4,15.6,0,3.1-.2,4.7h-22.8c.2,7.4,3.7,10.1,8.8,10.1s6.4-2.1,7.2-5.7l6.7,1.6c-1.4,6.7-6.7,10.5-14.3,10.5-12.6,0-16.6-8.7-16.6-18.4ZM1019.7,304.9c0-6-2.1-8.6-6.8-8.6s-7.6,2.4-8,8.6h14.8Z"/>
    <path d="M1043.7,326h-7.8v-51.3h7.8v51.3Z"/>
    <path d="M1051.3,308.6c0-11.3,5.8-18.5,17.5-18.5s16.3,7.3,16.3,17.7-5,19-17.1,19-16.6-7.8-16.6-18.2ZM1076.8,308.2c0-8.8-2.9-11.8-8.4-11.8s-9,3.3-9,11.9,2.7,12.4,8.8,12.4,8.6-3.5,8.6-12.6Z"/>
    <path d="M1092.8,290.8h6.7l.4,3.7c3.1-2.9,7.1-4.5,11.8-4.5,7.4,0,13,4.6,13,17.5s-6.7,19.2-14.6,19.2-7.3-1.4-9.8-3.4v17h-7.5v-49.6ZM1100.6,317.3c1.4,1.1,4.5,3.1,7.9,3.1,5.9,0,8.1-5,8.1-12.7s-2.4-11.2-7.4-11.2-6.7,2-8.6,3.7v17.1Z"/>
    <path d="M1140.4,326h-7.8v-35.2h6.7l.3,3.6c3.2-2.5,6.9-4.4,11.5-4.4s7.3,1.3,8.8,4.6c3.1-2.7,7-4.6,11.8-4.6,7.2,0,10.2,4,10.2,11.9v24h-7.8v-22.8c0-4.1-1-6.5-4.9-6.5s-6.3,1.8-8,3.4c0,.5,0,1.2,0,1.8v24.1h-7.8v-22.8c0-4.1-1-6.5-4.8-6.5s-6.5,2-8.2,3.5v25.8Z"/>
    <path d="M1189.2,308.4c0-12.7,7.6-18.4,16.8-18.4s14.4,6.5,14.4,15.6,0,3.1-.2,4.7h-22.8c.2,7.4,3.7,10.1,8.8,10.1s6.4-2.1,7.2-5.7l6.7,1.6c-1.4,6.7-6.7,10.5-14.3,10.5-12.6,0-16.6-8.7-16.6-18.4ZM1212.3,304.9c0-6-2.1-8.6-6.8-8.6s-7.6,2.4-8,8.6h14.8Z"/>
    <path d="M1258.6,326h-7.8v-22.6c0-4.4-1.6-6.7-5.8-6.7s-7.2,2.2-8.9,3.7v25.6h-7.8v-35.2h6.9l.3,3.7c3.1-2.5,7.3-4.4,12.2-4.4,7.6,0,10.9,4,10.9,12v23.9Z"/>
    <path d="M1288.8,324.4c-1.8,1.2-5.6,2.4-9.3,2.4-6.9,0-10.5-3.1-10.5-10.6v-19.6h-5.4v-5.8h5.4v-10.3l7.8-1.1v11.4h9.5v5.8h-9.5v18.5c0,3.5.9,5.3,4.7,5.3s4.6-.8,6-1.6l1.3,5.6Z"/>
    <path d="M1294.2,318.1h8.4l-6.1,16.9-6.3-.7,3.9-16.2Z"/>
    <path d="M1357.8,319.6c-1.9,4.3-8,7.2-14.5,7.2-14.8,0-20.9-10.3-20.9-24.8s8.5-26.2,23.4-26.2,17.8,4.8,18.7,16.8l-7.4.8c-.7-6.9-4-10.9-11.5-10.9s-15,6.9-15,18.7,5.5,18.8,14.5,18.8,11.9-5.2,11.9-10.5v-3.2h-11.5v-6h19.2v25.6h-5.8l-1-6.4Z"/>
    <path d="M1372.3,308.6c0-11.3,5.8-18.5,17.5-18.5s16.3,7.3,16.3,17.7-5,19-17.1,19-16.6-7.8-16.6-18.2ZM1397.9,308.2c0-8.8-2.9-11.8-8.4-11.8s-9,3.3-9,11.9,2.7,12.4,8.8,12.4,8.6-3.5,8.6-12.6Z"/>
    <path d="M1421.4,326l-13-35.2h8.5l9.2,27.5h.1l9.1-27.5h8l-12.9,35.2h-9Z"/>
    <path d="M1445.7,308.4c0-12.7,7.6-18.4,16.8-18.4s14.4,6.5,14.4,15.6,0,3.1-.2,4.7h-22.8c.2,7.4,3.7,10.1,8.8,10.1s6.4-2.1,7.2-5.7l6.7,1.6c-1.4,6.7-6.7,10.5-14.3,10.5-12.6,0-16.6-8.7-16.6-18.4ZM1468.8,304.9c0-6-2.1-8.6-6.8-8.6s-7.6,2.4-8,8.6h14.8Z"/>
    <path d="M1504.9,298c-4.4-.5-9.4,1-12.3,3.6v24.4h-7.8v-35.2h6.6l.6,5.2c2.8-3.9,6.3-6,11.5-6s.7,0,1.4,0v7.8Z"/>
    <path d="M1540.7,326h-7.8v-22.6c0-4.4-1.6-6.7-5.8-6.7s-7.2,2.2-8.9,3.7v25.6h-7.8v-35.2h6.9l.3,3.7c3.1-2.5,7.3-4.4,12.2-4.4,7.6,0,10.9,4,10.9,12v23.9Z"/>
    <path d="M1557.8,326h-7.8v-35.2h6.7l.3,3.6c3.2-2.5,6.9-4.4,11.5-4.4s7.3,1.3,8.8,4.6c3.1-2.7,7-4.6,11.8-4.6,7.2,0,10.2,4,10.2,11.9v24h-7.8v-22.8c0-4.1-1-6.5-4.9-6.5s-6.3,1.8-8,3.4c0,.5,0,1.2,0,1.8v24.1h-7.8v-22.8c0-4.1-1-6.5-4.8-6.5s-6.5,2-8.2,3.5v25.8Z"/>
    <path d="M1606.6,308.4c0-12.7,7.6-18.4,16.8-18.4s14.4,6.5,14.4,15.6,0,3.1-.2,4.7h-22.8c.2,7.4,3.7,10.1,8.8,10.1s6.4-2.1,7.2-5.7l6.7,1.6c-1.4,6.7-6.7,10.5-14.3,10.5-12.6,0-16.6-8.7-16.6-18.4ZM1629.7,304.9c0-6-2.1-8.6-6.8-8.6s-7.6,2.4-8,8.6h14.8Z"/>
    <path d="M1676.1,326h-7.8v-22.6c0-4.4-1.6-6.7-5.8-6.7s-7.2,2.2-8.9,3.7v25.6h-7.8v-35.2h6.9l.3,3.7c3.1-2.5,7.3-4.4,12.2-4.4,7.6,0,10.9,4,10.9,12v23.9Z"/>
    <path d="M1706.2,324.4c-1.8,1.2-5.6,2.4-9.3,2.4-6.9,0-10.5-3.1-10.5-10.6v-19.6h-5.4v-5.8h5.4v-10.3l7.8-1.1v11.4h9.5v5.8h-9.5v18.5c0,3.5.9,5.3,4.7,5.3s4.6-.8,6-1.6l1.3,5.6Z"/>
    <path d="M1724.1,308.6c0-11.3,5.8-18.5,17.5-18.5s16.2,7.3,16.2,17.7-5,19-17.1,19-16.6-7.8-16.6-18.2ZM1749.6,308.2c0-8.8-2.9-11.8-8.4-11.8s-9,3.3-9,11.9,2.7,12.4,8.8,12.4,8.6-3.5,8.6-12.6Z"/>
    <path d="M1766.3,326v-29.4h-5v-5.8h5v-5c0-8.1,4.4-11.8,11.4-11.8s5.8.7,6.9,1.2l-.3,5.6c-1.4-.5-3.2-.9-4.8-.9-3.2,0-5.4,1.2-5.4,6.1v4.8h9.6v5.8h-9.6v29.4h-7.8Z"/>
    <path d="M1826.3,276.8l17.3,49.2h-8.7l-4.6-13.5h-17.9l-4.5,13.5h-8.1l16.4-49.2h10.1ZM1821.3,284.1h-.1l-7.2,21.8h14.5l-7.1-21.8Z"/>
    <path d="M1880.5,326h-7.8v-22.6c0-4.4-1.6-6.7-5.8-6.7s-7.2,2.2-8.9,3.7v25.6h-7.8v-35.2h6.9l.3,3.7c3.1-2.5,7.3-4.4,12.2-4.4,7.6,0,10.9,4,10.9,12v23.9Z"/>
    <path d="M1919.9,326h-6.5l-.5-3.5h-.1c-2.8,2.7-6.3,4.4-11.1,4.4-8.1,0-13.6-5.1-13.6-17.8s7.2-18.9,14.8-18.9,7.1,1,9.5,3.1v-18.5h7.6v51.3ZM1912.1,299.2c-1.5-1.2-4.3-2.7-7.6-2.7-6.1,0-8.4,5.1-8.4,12.4s2.4,11.6,8,11.6,6.1-1.6,8-3.6v-17.7Z"/>
    <path d="M1959.7,326h-7.8v-22.6c0-4.4-1.6-6.7-5.8-6.7s-7.2,2.2-8.9,3.7v25.6h-7.8v-51.3h7.8v19.7c3.1-2.4,6.9-4.2,11.8-4.2,7.5,0,10.8,4,10.8,12v23.9Z"/>
    <path d="M1989.2,298c-4.4-.5-9.4,1-12.3,3.6v24.4h-7.8v-35.2h6.6l.6,5.2c2.8-3.9,6.3-6,11.5-6s.7,0,1.4,0v7.8Z"/>
    <path d="M2020.1,318.6c0,1.9.3,2.7,2.1,2.7s1.2-.1,2.1-.4l.3,4.6c-1.4.7-3.6,1.2-5.5,1.2-3.7,0-5.3-1.4-5.9-4.1-2.4,2.6-6.3,4.3-11.2,4.3-8.8,0-10.4-6-10.4-9.5,0-9.1,7.8-12.1,17.2-12.1s2.7,0,3.6.1v-2.7c0-4.3-1-6.7-6.1-6.7s-5.7,1.8-6.5,5.4l-6.9-1.2c1.1-6.6,5.3-10.1,13.9-10.1s13.2,3.5,13.2,12.2v16.3ZM2012.5,310.8c-.7,0-1.5-.1-3.3-.1-3.9,0-9.7.5-9.7,5.6s1.1,4.7,5.2,4.7,6.1-1.6,7.7-3.3v-6.9Z"/>
    <path d="M2053.9,326h-7.9v-49.2h17.1c12.6,0,16.4,7.1,16.4,15,0,11.8-6.8,17.1-19,17.1h-6.6v17.2ZM2059.8,302.2c6.4,0,11.5-1.5,11.5-9.9s-3.8-9-10.6-9h-6.8v18.9h5.9Z"/>
    <path d="M2107.1,298c-4.4-.5-9.4,1-12.3,3.6v24.4h-7.8v-35.2h6.6l.6,5.2c2.8-3.9,6.3-6,11.5-6s.7,0,1.4,0v7.8Z"/>
    <path d="M2138,318.6c0,1.9.3,2.7,2.1,2.7s1.2-.1,2.1-.4l.3,4.6c-1.4.7-3.6,1.2-5.5,1.2-3.7,0-5.3-1.4-5.9-4.1-2.4,2.6-6.3,4.3-11.2,4.3-8.8,0-10.4-6-10.4-9.5,0-9.1,7.8-12.1,17.2-12.1s2.7,0,3.6.1v-2.7c0-4.3-1-6.7-6.1-6.7s-5.7,1.8-6.5,5.4l-6.9-1.2c1.1-6.6,5.3-10.1,13.9-10.1s13.2,3.5,13.2,12.2v16.3ZM2130.4,310.8c-.7,0-1.5-.1-3.3-.1-3.9,0-9.7.5-9.7,5.6s1.1,4.7,5.2,4.7,6.1-1.6,7.7-3.3v-6.9Z"/>
    <path d="M2178.4,326h-6.5l-.5-3.5h-.1c-2.8,2.7-6.3,4.4-11.1,4.4-8.1,0-13.6-5.1-13.6-17.8s7.2-18.9,14.8-18.9,7.1,1,9.5,3.1v-18.5h7.6v51.3ZM2170.5,299.2c-1.5-1.2-4.3-2.7-7.6-2.7-6.1,0-8.4,5.1-8.4,12.4s2.4,11.6,8,11.6,6.1-1.6,8-3.6v-17.7Z"/>
    <path d="M2186,308.4c0-12.7,7.6-18.4,16.8-18.4s14.4,6.5,14.4,15.6,0,3.1-.2,4.7h-22.8c.2,7.4,3.7,10.1,8.8,10.1s6.4-2.1,7.2-5.7l6.7,1.6c-1.4,6.7-6.7,10.5-14.3,10.5-12.6,0-16.6-8.7-16.6-18.4ZM2209.1,304.9c0-6-2.1-8.6-6.8-8.6s-7.6,2.4-8,8.6h14.8Z"/>
    <path d="M2250.5,300.1l-6.8,1.8c-.8-3.5-2.1-5.9-6.7-5.9s-6.1,1.8-6.1,4.1,3,4.2,7.6,5c6.1,1.1,12.5,2.5,12.5,10.5s-5.8,11.2-14.5,11.2-13.3-3.4-14.3-9.9l6.7-2.2c.9,3.3,2.3,6.3,8,6.3s6.6-1.2,6.6-4.2-2.9-4.2-7.3-5c-5.8-1.1-12.5-2.4-12.5-10.7s6.2-10.9,13.5-10.9,12,3.9,13.3,10Z"/>
    <path d="M2288.7,326h-7.8v-22.6c0-4.4-1.6-6.7-5.8-6.7s-7.2,2.2-8.9,3.7v25.6h-7.8v-51.3h7.8v19.7c3.1-2.4,6.9-4.2,11.8-4.2,7.5,0,10.8,4,10.8,12v23.9Z"/>
  </g>
</svg>